Coordinates
version=1
nRows=23
nColumns=27
inDegrees=yes

Units are S.I. units (second, meters, Newtons, ...)
If the header above contains a line with 'inDegrees', this indicates whether rotational values are in degrees (yes) or radians (no).

endheader
time	pelvis_rotation	pelvis_tilt	pelvis_list	pelvis_tx	pelvis_ty	pelvis_tz	hip_flexion_r	hip_adduction_r	hip_rotation_r	knee_angle_r	knee_rotation_r	knee_adduction_r	knee_angle_r_beta	ankle_angle_r	subtalar_angle_r	mtp_angle_r	hip_flexion_l	hip_adduction_l	hip_rotation_l	knee_angle_l	knee_rotation_l	knee_adduction_l	knee_angle_l_beta	ankle_angle_l	subtalar_angle_l	mtp_angle_l
      4.38000000	      5.60702540	    -26.36127958	      2.52239311	     -0.00063675	      0.43577376	     -1.11536700	    125.58441061	    -44.86004818	     29.62692692	    109.74332330	      0.00000000	      9.93901671	      1.91538232	     17.03703853	      0.00000000	      0.00000000	    122.06692301	    -36.41695342	     24.08753875	    103.44435844	      0.00000000	     -9.95597608	      1.80544465	     10.50121079	      0.00000000	      0.00000000
      4.38500000	      5.62402528	    -26.34403747	      2.55535689	     -0.00042395	      0.43511990	     -1.11544932	    125.66462071	    -44.78755250	     29.78727150	    109.82822677	      0.00000000	      9.93890063	      1.91686417	     17.06556945	      0.00000000	      0.00000000	    122.14603989	    -36.44132508	     24.11599337	    103.53417830	      0.00000000	     -9.95605383	      1.80701230	     10.49088115	      0.00000000	      0.00000000
      4.39000000	      5.69525775	    -26.32896009	      2.57304278	     -0.00019309	      0.43448129	     -1.11556392	    125.73525905	    -44.79949132	     29.93673448	    109.90543845	      0.00000000	      9.93887939	      1.91821177	     17.14535907	      0.00000000	      0.00000000	    122.22641161	    -36.38435177	     24.15206923	    103.62949358	      0.00000000	     -9.95612436	      1.80867587	     10.51480119	      0.00000000	      0.00000000
      4.39500000	      5.75975219	    -26.29653295	      2.60473631	      0.00004884	      0.43393470	     -1.11564404	    125.78873530	    -44.79742537	     30.08629618	    109.98387225	      0.00000000	      9.93878061	      1.91958069	     17.20363161	      0.00000000	      0.00000000	    122.26301827	    -36.34589274	     24.16859766	    103.71007944	      0.00000000	     -9.95620045	      1.81008235	     10.50838142	      0.00000000	      0.00000000
      4.40000000	      5.81442207	    -26.26944422	      2.63028150	      0.00025574	      0.43336205	     -1.11577390	    125.84927334	    -44.77834006	     30.24482642	    110.04942188	      0.00000000	      9.93871042	      1.92072475	     17.15998306	      0.00000000	      0.00000000	    122.30541771	    -36.29703627	     24.19878869	    103.79366307	      0.00000000	     -9.95624317	      1.81154116	     10.52526608	      0.00000000	      0.00000000
      4.40500000	      5.87863878	    -26.26977978	      2.63727486	      0.00050999	      0.43293914	     -1.11588096	    125.87537336	    -44.79486570	     30.34218045	    110.10745441	      0.00000000	      9.93855047	      1.92173761	     17.29147267	      0.00000000	      0.00000000	    122.37407478	    -36.24482328	     24.22323802	    103.86890627	      0.00000000	     -9.95629544	      1.81285440	     10.53827683	      0.00000000	      0.00000000
      4.41000000	      5.98633391	    -26.27786210	      2.45874132	      0.00074436	      0.43256615	     -1.11605757	    125.72835489	    -45.00380527	     30.20532764	    110.12590316	      0.00000000	      9.93842142	      1.92205960	     17.36916000	      0.00000000	      0.00000000	    122.58391224	    -35.99466200	     24.46908185	    103.96600614	      0.00000000	     -9.95631532	      1.81454912	     10.54939049	      0.00000000	      0.00000000
      4.41500000	      6.00910915	    -26.28778383	      2.56531653	      0.00095140	      0.43217428	     -1.11616015	    125.86974606	    -44.89311154	     30.43017758	    110.19357418	      0.00000000	      9.93823654	      1.92324068	     17.39970578	      0.00000000	      0.00000000	    122.57364063	    -36.04304488	     24.38400665	    104.02470954	      0.00000000	     -9.95634671	      1.81557368	     10.58206959	      0.00000000	      0.00000000
      4.42000000	      6.05437830	    -26.28430580	      2.69394377	      0.00116326	      0.43186536	     -1.11626036	    126.00851132	    -44.79473184	     30.67938237	    110.25304808	      0.00000000	      9.93808750	      1.92427870	     17.42241217	      0.00000000	      0.00000000	    122.50983305	    -36.07634762	     24.26107118	    104.06452013	      0.00000000	     -9.95634698	      1.81626851	     10.60323858	      0.00000000	      0.00000000
      4.42500000	      6.15786389	    -26.28457237	      2.58141648	      0.00135916	      0.43157079	     -1.11645675	    125.91871161	    -44.95568332	     30.62060569	    110.27092157	      0.00000000	      9.93791912	      1.92459065	     17.47655357	      0.00000000	      0.00000000	    122.64439903	    -35.86721221	     24.41608403	    104.15011406	      0.00000000	     -9.95632432	      1.81776241	     10.63097112	      0.00000000	      0.00000000
      4.43000000	      6.22448342	    -26.32897767	      2.65009633	      0.00154170	      0.43137859	     -1.11657447	    126.03699213	    -44.93168039	     30.77955839	    110.30862882	      0.00000000	      9.93771046	      1.92524877	     17.48044125	      0.00000000	      0.00000000	    122.65560186	    -35.82463221	     24.35561380	    104.19014982	      0.00000000	     -9.95630916	      1.81846116	     10.65634662	      0.00000000	      0.00000000
      4.43500000	      6.22043559	    -26.37734398	      2.76433558	      0.00168710	      0.43119774	     -1.11668910	    126.18165447	    -44.78090203	     30.97543030	    110.35072060	      0.00000000	      9.93745807	      1.92598341	     17.49618492	      0.00000000	      0.00000000	    122.63980598	    -35.89236266	     24.25037984	    104.22561133	      0.00000000	     -9.95629816	      1.81908008	     10.68901337	      0.00000000	      0.00000000
      4.44000000	      6.27081340	    -26.41445946	      2.78383480	      0.00182820	      0.43109384	     -1.11684129	    126.22630983	    -44.77768839	     31.05333883	    110.36958168	      0.00000000	      9.93721768	      1.92631259	     17.50940211	      0.00000000	      0.00000000	    122.67161989	    -35.82996206	     24.23513705	    104.26436615	      0.00000000	     -9.95625495	      1.81975648	     10.71995701	      0.00000000	      0.00000000
      4.44500000	      6.32205312	    -26.48831911	      2.81305052	      0.00192433	      0.43101976	     -1.11699816	    126.30460269	    -44.75963565	     31.13104036	    110.37912768	      0.00000000	      9.93695387	      1.92647920	     17.52933384	      0.00000000	      0.00000000	    122.73067792	    -35.76282343	     24.21928943	    104.30385281	      0.00000000	     -9.95618654	      1.82044565	     10.72726676	      0.00000000	      0.00000000
      4.45000000	      6.35863387	    -26.50076061	      2.85330863	      0.00203303	      0.43098602	     -1.11713296	    126.33961903	    -44.72750061	     31.22381571	    110.39744644	      0.00000000	      9.93669159	      1.92679893	     17.53567397	      0.00000000	      0.00000000	    122.71096483	    -35.72864044	     24.17443314	    104.32658408	      0.00000000	     -9.95613981	      1.82084239	     10.74297251	      0.00000000	      0.00000000
      4.45500000	      6.41514539	    -26.56034843	      2.88667759	      0.00211650	      0.43100023	     -1.11728621	    126.41305856	    -44.72288779	     31.30192220	    110.40542447	      0.00000000	      9.93636809	      1.92693817	     17.52965833	      0.00000000	      0.00000000	    122.73220854	    -35.65522153	     24.13647390	    104.35359648	      0.00000000	     -9.95605288	      1.82131384	     10.78658323	      0.00000000	      0.00000000
      4.46000000	      6.45657785	    -26.62338701	      2.89284915	      0.00216235	      0.43105240	     -1.11742617	    126.45032908	    -44.71677048	     31.33264033	    110.40514146	      0.00000000	      9.93606449	      1.92693323	     17.52669555	      0.00000000	      0.00000000	    122.78632537	    -35.58909552	     24.12911016	    104.37525355	      0.00000000	     -9.95596838	      1.82169183	     10.77914716	      0.00000000	      0.00000000
      4.46500000	      6.50007593	    -26.69309094	      2.94430572	      0.00215367	      0.43115088	     -1.11758337	    126.53699549	    -44.67939783	     31.41726115	    110.39906504	      0.00000000	      9.93571308	      1.92682718	     17.51124946	      0.00000000	      0.00000000	    122.79631231	    -35.53419034	     24.06240967	    104.38431520	      0.00000000	     -9.95586954	      1.82184999	     10.78945462	      0.00000000	      0.00000000
      4.47000000	      6.60418956	    -26.77456397	      2.97216476	      0.00215938	      0.43130036	     -1.11773383	    126.62885896	    -44.74289013	     31.48377626	    110.38782258	      0.00000000	      9.93534735	      1.92663096	     17.51220368	      0.00000000	      0.00000000	    122.81935274	    -35.39840093	     24.00483490	    104.37733796	      0.00000000	     -9.95575024	      1.82172821	     10.81076619	      0.00000000	      0.00000000
      4.47500000	      6.59313788	    -26.83629720	      3.02813145	      0.00206959	      0.43149375	     -1.11785758	    126.67689297	    -44.62132982	     31.54092100	    110.37414521	      0.00000000	      9.93500533	      1.92639224	     17.46609694	      0.00000000	      0.00000000	    122.81389073	    -35.40888773	     23.93352954	    104.38288230	      0.00000000	     -9.95562579	      1.82182498	     10.80584641	      0.00000000	      0.00000000
      4.48000000	      6.63376633	    -26.88178117	      3.07880704	      0.00200236	      0.43171334	     -1.11799028	    126.71740258	    -44.58866768	     31.59841111	    110.35674436	      0.00000000	      9.93459741	      1.92608854	     17.48581634	      0.00000000	      0.00000000	    122.79518217	    -35.36717142	     23.84987085	    104.37582981	      0.00000000	     -9.95549392	      1.82170189	     10.76196330	      0.00000000	      0.00000000
      4.48500000	      6.68522752	    -26.95232926	      3.10419894	      0.00186360	      0.43200066	     -1.11810772	    126.76606557	    -44.57864714	     31.62155036	    110.32544396	      0.00000000	      9.93423179	      1.92554225	     17.41068980	      0.00000000	      0.00000000	    122.79775382	    -35.27982953	     23.79410164	    104.35627962	      0.00000000	     -9.95535233	      1.82136067	     10.78922739	      0.00000000	      0.00000000
      4.49000000	      6.78144631	    -26.97722114	      3.15348583	      0.00172909	      0.43233450	     -1.11826576	    126.79222446	    -44.61561372	     31.67955546	    110.28618968	      0.00000000	      9.93382717	      1.92485713	     17.36495907	      0.00000000	      0.00000000	    122.72591769	    -35.15670058	     23.68794345	    104.33469679	      0.00000000	     -9.95517488	      1.82098398	     10.78018492	      0.00000000	      0.00000000
